<?xml version="1.0" encoding="utf-8"?>
<!-- Generator: Adobe Illustrator 16.0.0, SVG Export Plug-In . SVG Version: 6.00 Build 0)  -->
<!DOCTYPE svg PUBLIC "-//W3C//DTD SVG 1.1//EN" "http://www.w3.org/Graphics/SVG/1.1/DTD/svg11.dtd">
<svg version="1.1" id="Layer_1" xmlns="http://www.w3.org/2000/svg" xmlns:xlink="http://www.w3.org/1999/xlink" x="0px" y="0px"
	 width="201.537px" height="109.166px" viewBox="0 0 201.537 109.166" enable-background="new 0 0 201.537 109.166"
	 xml:space="preserve">
<g enable-background="new    ">
	<path fill="#757575" d="M100.195,81.491v-1.924h-1.91v-0.803h1.91v-1.91h0.813v1.91h1.91v0.803h-1.91v1.924H100.195z"/>
</g>
<g enable-background="new    ">
	<path fill="#757575" d="M74.949,93.604c0.056,0.02,0.1,0.057,0.132,0.111c0.032,0.055,0.048,0.115,0.048,0.184
		c0,0.072-0.02,0.148-0.06,0.227c-0.032,0.061-0.081,0.125-0.147,0.193c-0.066,0.068-0.145,0.131-0.237,0.191
		c-0.016,0.008-0.031,0.018-0.045,0.027c-0.014,0.01-0.027,0.02-0.039,0.027l0.006-0.006c-0.016,0.008-0.036,0.02-0.06,0.035
		c-0.024,0.016-0.048,0.029-0.072,0.043h-0.006c-0.008,0.004-0.014,0.006-0.018,0.008c-0.004,0.002-0.01,0.006-0.018,0.01
		l-0.036,0.018c-0.064,0.031-0.151,0.07-0.261,0.117c-0.11,0.045-0.251,0.104-0.423,0.17c-0.216,0.076-0.489,0.164-0.819,0.266
		c-0.33,0.1-0.747,0.205-1.251,0.316l0.006-0.006c-0.128,0.033-0.262,0.064-0.402,0.094s-0.286,0.061-0.438,0.094
		c-0.06,0.012-0.121,0.023-0.183,0.035s-0.125,0.023-0.189,0.035c-0.092,0.021-0.186,0.041-0.282,0.061
		c-0.096,0.02-0.194,0.041-0.294,0.061l0.006-0.006c-0.036,0.008-0.074,0.018-0.114,0.027s-0.08,0.018-0.12,0.027
		c-0.092,0.02-0.179,0.037-0.261,0.057c-0.082,0.018-0.164,0.035-0.246,0.053c-0.082,0.02-0.168,0.039-0.258,0.061
		c-0.09,0.021-0.187,0.047-0.291,0.074c0.028,0.168,0.04,0.352,0.036,0.547c-0.004,0.129-0.023,0.258-0.057,0.391
		c-0.034,0.131-0.083,0.262-0.147,0.389c-0.124,0.248-0.315,0.48-0.573,0.697c-0.258,0.215-0.557,0.385-0.897,0.51
		c-0.224,0.072-0.445,0.123-0.663,0.156c-0.218,0.031-0.423,0.043-0.615,0.035c-0.212-0.004-0.411-0.025-0.597-0.066
		c-0.186-0.039-0.355-0.102-0.507-0.186c-0.092-0.057-0.177-0.125-0.255-0.207c-0.078-0.082-0.133-0.186-0.165-0.309
		c-0.028-0.121-0.026-0.232,0.006-0.34c0.032-0.105,0.076-0.199,0.132-0.277c0.1-0.137,0.204-0.248,0.312-0.338
		c0.108-0.088,0.214-0.168,0.318-0.238c0.2-0.129,0.401-0.238,0.603-0.33c0.202-0.092,0.409-0.184,0.621-0.271
		c0.38-0.154,0.818-0.309,1.314-0.461l0.276-0.078c-0.04-0.104-0.082-0.207-0.126-0.309c-0.044-0.104-0.084-0.193-0.12-0.273v0.006
		c-0.128-0.256-0.263-0.502-0.405-0.734c-0.142-0.234-0.291-0.473-0.447-0.717c-0.116-0.178-0.241-0.359-0.375-0.551
		c-0.134-0.189-0.287-0.404-0.459-0.645c-0.14-0.191-0.29-0.402-0.45-0.629c-0.008-0.008-0.016-0.018-0.024-0.027
		s-0.016-0.025-0.024-0.045v-0.006c-0.132-0.184-0.275-0.391-0.429-0.621c-0.154-0.23-0.311-0.484-0.471-0.766
		c-0.084-0.145-0.168-0.307-0.252-0.488s-0.152-0.371-0.204-0.568v0.008c-0.032-0.109-0.055-0.229-0.069-0.357
		c-0.014-0.131-0.015-0.254-0.003-0.369c0.012-0.133,0.052-0.264,0.12-0.396c0.068-0.133,0.154-0.25,0.258-0.354
		c0.116-0.104,0.232-0.188,0.348-0.25c0.116-0.061,0.228-0.113,0.336-0.152c0.116-0.039,0.232-0.072,0.348-0.1
		c0.116-0.025,0.224-0.049,0.324-0.068c0.208-0.031,0.414-0.053,0.618-0.063c0.204-0.01,0.408-0.016,0.612-0.016
		c0.392,0,0.762,0.012,1.11,0.035c0.348,0.025,0.676,0.066,0.984,0.127c0.144,0.031,0.293,0.068,0.447,0.111
		c0.154,0.041,0.305,0.096,0.453,0.164c0.144,0.064,0.284,0.139,0.42,0.225c0.136,0.088,0.25,0.178,0.342,0.273
		c0.104,0.117,0.189,0.244,0.255,0.381c0.066,0.139,0.111,0.277,0.135,0.418c0.012,0.08,0.018,0.168,0.018,0.264
		c0,0.16-0.022,0.318-0.066,0.475c-0.056,0.195-0.124,0.377-0.204,0.543c-0.08,0.166-0.156,0.307-0.228,0.422
		c-0.072,0.117-0.145,0.227-0.219,0.33c-0.074,0.105-0.137,0.191-0.189,0.258c-0.116,0.145-0.21,0.258-0.282,0.342
		c-0.072,0.084-0.124,0.143-0.156,0.176c-0.072,0.08-0.149,0.143-0.231,0.191c-0.082,0.047-0.161,0.082-0.237,0.102
		c-0.076,0.02-0.147,0.025-0.213,0.016c-0.066-0.01-0.117-0.037-0.153-0.082c-0.036-0.039-0.055-0.09-0.057-0.15
		c-0.002-0.059,0.008-0.125,0.03-0.193c0.022-0.07,0.056-0.143,0.102-0.217c0.046-0.074,0.101-0.145,0.165-0.213l0.108-0.102
		c0.012-0.012,0.024-0.025,0.036-0.037c0.012-0.012,0.026-0.027,0.042-0.047c0.016-0.02,0.033-0.041,0.051-0.061
		s0.041-0.043,0.069-0.072h-0.006c0.04-0.043,0.083-0.092,0.129-0.145c0.046-0.051,0.101-0.115,0.165-0.191l-0.006,0.006
		c0.056-0.076,0.118-0.162,0.186-0.258c0.068-0.096,0.136-0.205,0.204-0.33c0.032-0.068,0.064-0.137,0.096-0.209
		s0.062-0.146,0.09-0.223c0.02-0.068,0.036-0.145,0.048-0.23c0.012-0.086,0.014-0.174,0.006-0.262
		c-0.016-0.08-0.043-0.16-0.081-0.242s-0.091-0.158-0.159-0.227c-0.076-0.074-0.17-0.145-0.282-0.209s-0.236-0.121-0.372-0.168
		c-0.284-0.104-0.606-0.184-0.966-0.236c-0.36-0.055-0.74-0.092-1.14-0.111c-0.08-0.004-0.175-0.008-0.285-0.01
		c-0.11-0.002-0.207-0.002-0.291-0.002c-0.116,0-0.238,0.002-0.366,0.006s-0.256,0.012-0.384,0.023
		c-0.12,0.012-0.241,0.027-0.363,0.045s-0.235,0.043-0.339,0.074c-0.104,0.029-0.208,0.066-0.312,0.115
		c-0.104,0.047-0.198,0.111-0.282,0.191c-0.068,0.061-0.118,0.131-0.15,0.213c-0.032,0.082-0.05,0.166-0.054,0.25
		c-0.008,0.1-0.001,0.197,0.021,0.293s0.047,0.189,0.075,0.283v-0.008c0.072,0.209,0.153,0.398,0.243,0.568
		c0.09,0.17,0.181,0.33,0.273,0.482c0.184,0.301,0.356,0.563,0.516,0.789c0.16,0.227,0.312,0.439,0.456,0.639
		c-0.008-0.008-0.002,0,0.018,0.021s0.042,0.049,0.066,0.08c0.008,0.01,0.014,0.018,0.018,0.025s0.01,0.016,0.018,0.023
		l-0.006-0.006c0.088,0.119,0.172,0.234,0.252,0.342c0.032,0.045,0.064,0.09,0.096,0.135c0.032,0.047,0.064,0.09,0.096,0.129
		c0.212,0.289,0.408,0.555,0.588,0.799c0.18,0.244,0.336,0.473,0.468,0.689c0.088,0.129,0.178,0.27,0.27,0.424
		c0.092,0.152,0.172,0.303,0.24,0.445c0.044,0.09,0.089,0.182,0.135,0.279c0.046,0.1,0.089,0.203,0.129,0.316
		c0.428-0.117,0.827-0.219,1.197-0.307c0.37-0.088,0.707-0.166,1.011-0.234l-0.006,0.006c0.032-0.008,0.066-0.016,0.102-0.023
		c0.036-0.008,0.07-0.016,0.102-0.023c0.044-0.008,0.087-0.018,0.129-0.027s0.085-0.02,0.129-0.027l-0.006,0.006
		c0.4-0.092,0.756-0.186,1.068-0.279s0.58-0.18,0.804-0.26c0.18-0.068,0.344-0.133,0.492-0.195s0.262-0.115,0.342-0.16
		c0.1-0.047,0.187-0.092,0.261-0.135c0.074-0.041,0.151-0.09,0.231-0.146c0.056-0.035,0.112-0.07,0.168-0.105
		c0.056-0.033,0.104-0.061,0.144-0.08c0.072-0.033,0.135-0.055,0.189-0.066C74.826,93.569,74.885,93.577,74.949,93.604z
		 M67.743,97.235c0.056-0.092,0.093-0.189,0.111-0.289s0.027-0.199,0.027-0.299c0-0.045-0.001-0.086-0.003-0.127
		c-0.002-0.039-0.007-0.082-0.015-0.125c-0.036,0.012-0.074,0.023-0.114,0.035s-0.082,0.025-0.126,0.043
		c-0.012,0.004-0.032,0.01-0.06,0.02c-0.028,0.012-0.05,0.018-0.066,0.021l0.012-0.006c-0.24,0.068-0.487,0.148-0.741,0.242
		c-0.254,0.096-0.507,0.197-0.759,0.311h0.006c-0.116,0.055-0.238,0.117-0.366,0.182c-0.128,0.066-0.256,0.145-0.384,0.232
		c-0.056,0.035-0.11,0.074-0.162,0.113c-0.052,0.039-0.106,0.088-0.162,0.145c-0.044,0.039-0.084,0.08-0.12,0.123
		c-0.036,0.041-0.058,0.078-0.066,0.111l0.006-0.008c-0.008,0.037,0.018,0.078,0.078,0.127c0.028,0.023,0.07,0.047,0.126,0.066
		c0.056,0.02,0.112,0.037,0.168,0.053c0.08,0.021,0.166,0.035,0.258,0.043c0.092,0.008,0.184,0.012,0.276,0.012
		c0.064,0,0.131-0.002,0.201-0.01c0.07-0.006,0.141-0.012,0.213-0.02c0.16-0.021,0.321-0.057,0.483-0.109
		c0.162-0.051,0.321-0.117,0.477-0.197h-0.006c0.144-0.08,0.277-0.176,0.399-0.287c0.122-0.113,0.223-0.244,0.303-0.396
		L67.743,97.235z M67.838,95.794c-0.004,0-0.007,0.002-0.009,0.004s-0.005,0.004-0.009,0.004l0.024-0.008H67.838z"/>
	<path fill="#757575" d="M83.462,93.845c0.02,0.049,0.022,0.102,0.006,0.162c-0.016,0.061-0.045,0.117-0.087,0.174
		s-0.096,0.111-0.162,0.166c-0.066,0.053-0.139,0.098-0.219,0.135c-0.008,0.004-0.016,0.006-0.024,0.008
		c-0.008,0.002-0.016,0.006-0.024,0.01c-0.032,0.012-0.067,0.025-0.105,0.041c-0.038,0.018-0.091,0.037-0.159,0.061
		c-0.04,0.012-0.085,0.027-0.135,0.045c-0.05,0.018-0.113,0.041-0.189,0.07c-0.032,0.012-0.069,0.023-0.111,0.037
		c-0.042,0.016-0.085,0.029-0.129,0.047l-0.054,0.018h0.006c-0.164,0.055-0.396,0.131-0.693,0.225s-0.653,0.193-1.065,0.297
		c-0.448,0.111-0.988,0.227-1.62,0.342c-0.632,0.117-1.348,0.197-2.148,0.246c-0.092,0.004-0.176,0.008-0.252,0.012
		c-0.076,0.004-0.151,0.008-0.225,0.012c-0.074,0.004-0.152,0.008-0.234,0.01s-0.173,0.004-0.273,0.004
		c-0.004,0.008-0.006,0.014-0.006,0.018s-0.002,0.01-0.006,0.018c-0.032,0.088-0.063,0.166-0.09,0.234s-0.058,0.154-0.09,0.258
		c0.116,0.152,0.234,0.314,0.354,0.488s0.244,0.369,0.372,0.586c0.008,0.02,0.019,0.039,0.033,0.057
		c0.014,0.018,0.025,0.037,0.033,0.057c0.032,0.064,0.065,0.129,0.099,0.195c0.034,0.066,0.065,0.133,0.093,0.201
		c0,0.016,0.002,0.025,0.006,0.029c0.016,0.057,0.031,0.111,0.045,0.166c0.014,0.053,0.021,0.117,0.021,0.188
		c0,0.049-0.009,0.107-0.027,0.176c-0.018,0.066-0.061,0.139-0.129,0.215c-0.076,0.076-0.153,0.121-0.231,0.135
		s-0.145,0.02-0.201,0.016c-0.092-0.008-0.168-0.023-0.228-0.049c-0.06-0.023-0.118-0.049-0.174-0.078
		c-0.032-0.016-0.075-0.041-0.129-0.078c-0.054-0.035-0.103-0.07-0.147-0.107c-0.084-0.068-0.166-0.141-0.246-0.215
		c-0.08-0.076-0.152-0.154-0.216-0.234c-0.036-0.049-0.073-0.104-0.111-0.168s-0.075-0.137-0.111-0.217
		c-0.044-0.104-0.068-0.195-0.072-0.273c-0.004-0.078-0.002-0.146,0.006-0.207c0-0.004,0.001-0.008,0.003-0.014
		s0.003-0.012,0.003-0.016c0.012-0.115,0.03-0.227,0.054-0.332c0.024-0.107,0.052-0.209,0.084-0.311v0.006
		c0-0.012,0.004-0.025,0.012-0.041l0.012-0.023c0.004-0.018,0.007-0.031,0.009-0.045c0.002-0.016,0.007-0.035,0.015-0.064
		c-0.012-0.02-0.023-0.035-0.033-0.045c-0.01-0.01-0.023-0.023-0.039-0.045l-0.006-0.006c-0.032-0.027-0.062-0.064-0.09-0.107
		c-0.008-0.008-0.013-0.016-0.015-0.021s-0.007-0.012-0.015-0.021c-0.008-0.008-0.013-0.016-0.015-0.023s-0.007-0.016-0.015-0.023
		l0.012,0.012l-0.09-0.107c-0.02-0.029-0.039-0.053-0.057-0.072c-0.018-0.02-0.031-0.039-0.039-0.055l-0.024-0.035
		c-0.008-0.008-0.017-0.018-0.027-0.031c-0.01-0.012-0.019-0.021-0.027-0.029l-0.282-0.611l1.212,0.059
		c0.044-0.1,0.09-0.201,0.138-0.305c0.048-0.105,0.094-0.207,0.138-0.307c0.02-0.043,0.042-0.092,0.066-0.145
		c0.024-0.051,0.046-0.1,0.066-0.143c0.004-0.01,0.006-0.016,0.006-0.021s0.002-0.014,0.006-0.021
		c0.008-0.016,0.016-0.029,0.024-0.041c0.04-0.094,0.07-0.16,0.09-0.205c0.02-0.043,0.041-0.088,0.063-0.135
		s0.048-0.102,0.078-0.168s0.079-0.168,0.147-0.303c-0.076,0.064-0.142,0.117-0.198,0.162c-0.056,0.043-0.112,0.088-0.168,0.131
		c-0.044,0.037-0.084,0.068-0.12,0.094c-0.036,0.025-0.07,0.051-0.102,0.074c-0.02,0.021-0.041,0.039-0.063,0.055
		s-0.041,0.029-0.057,0.043c-0.012,0.012-0.027,0.023-0.045,0.039c-0.018,0.014-0.027,0.018-0.027,0.014
		c-0.008,0.008-0.015,0.016-0.021,0.021c-0.006,0.006-0.013,0.012-0.021,0.016c-0.088,0.063-0.177,0.111-0.267,0.143
		c-0.09,0.033-0.173,0.049-0.249,0.049c-0.136,0-0.23-0.047-0.282-0.139v0.006c-0.032-0.043-0.046-0.096-0.042-0.156
		c0.004-0.059,0.022-0.121,0.054-0.186c0.032-0.063,0.075-0.127,0.129-0.191s0.117-0.123,0.189-0.174
		c0.028-0.02,0.053-0.039,0.075-0.055s0.043-0.031,0.063-0.047c0.024-0.018,0.05-0.033,0.078-0.049
		c0.028-0.016,0.062-0.037,0.102-0.066l0.03-0.029c0.016-0.008,0.03-0.018,0.042-0.029c0.004-0.004,0.01-0.012,0.018-0.02
		c0.008-0.008,0.016-0.014,0.024-0.018c0.084-0.061,0.185-0.131,0.303-0.215c0.118-0.084,0.261-0.197,0.429-0.338
		c0.136-0.111,0.287-0.238,0.453-0.383s0.345-0.313,0.537-0.504c0.168-0.324,0.354-0.682,0.558-1.074
		c0.204-0.393,0.442-0.828,0.714-1.309c0.004-0.004,0.011-0.016,0.021-0.035c0.01-0.02,0.019-0.039,0.027-0.055
		c0.092-0.156,0.185-0.313,0.279-0.471c0.094-0.158,0.189-0.303,0.285-0.436c0.008-0.012,0.022-0.029,0.042-0.053
		c0.02-0.025,0.04-0.049,0.06-0.072l0.024-0.025c0.008-0.012,0.02-0.025,0.036-0.041c0.016-0.016,0.034-0.027,0.054-0.035
		l0.012-0.008c-0.004,0-0.008,0.004-0.012,0.008l0.054-0.055c0.008,0,0.012,0.002,0.012,0.006c0.004-0.004,0.012-0.008,0.024-0.012
		c0.012-0.004,0.04-0.014,0.084-0.031h0.072c0.012,0,0.026,0.004,0.042,0.008s0.034,0.01,0.054,0.018l0.006-0.006
		c0.096,0.043,0.158,0.092,0.186,0.143c0.028,0.053,0.056,0.109,0.084,0.168l0.006,0.037c0.004,0.016,0.006,0.033,0.006,0.051
		s0,0.031,0,0.039c0,0.035-0.001,0.07-0.003,0.102c-0.002,0.033-0.005,0.059-0.009,0.078c-0.012,0.084-0.031,0.168-0.057,0.252
		s-0.051,0.166-0.075,0.246l-0.018,0.061c-0.128,0.324-0.274,0.619-0.438,0.887c-0.164,0.27-0.328,0.52-0.492,0.75
		c-0.228,0.316-0.453,0.6-0.675,0.85c-0.222,0.25-0.435,0.477-0.639,0.682c-0.076,0.152-0.146,0.293-0.21,0.426
		s-0.126,0.26-0.186,0.385v-0.008c-0.208,0.441-0.379,0.824-0.513,1.15c-0.134,0.326-0.255,0.627-0.363,0.902l-0.006,0.006
		c0,0.004-0.001,0.008-0.003,0.01c-0.002,0.002-0.003,0.004-0.003,0.008c0.136-0.004,0.269-0.01,0.399-0.018
		c0.13-0.008,0.275-0.016,0.435-0.023c0.68-0.053,1.288-0.127,1.824-0.223s0.986-0.193,1.35-0.293
		c0.364-0.092,0.679-0.184,0.945-0.273s0.497-0.176,0.693-0.256c0.216-0.08,0.387-0.146,0.513-0.201
		c0.126-0.053,0.237-0.102,0.333-0.146c0.016-0.008,0.033-0.016,0.051-0.023c0.018-0.008,0.035-0.016,0.051-0.023
		c0.024-0.008,0.048-0.018,0.072-0.027c0.024-0.01,0.05-0.021,0.078-0.033h-0.006c0.028-0.016,0.056-0.029,0.084-0.043
		c0.028-0.012,0.054-0.021,0.078-0.029l-0.006,0.006c0.156-0.068,0.298-0.102,0.426-0.102c0.084,0,0.157,0.016,0.219,0.045
		s0.107,0.074,0.135,0.135L83.462,93.845z M75.542,97.968c-0.044-0.08-0.084-0.154-0.12-0.221c-0.036-0.064-0.07-0.129-0.102-0.188
		l-0.006,0.006c-0.016-0.025-0.031-0.047-0.045-0.07c-0.014-0.021-0.029-0.043-0.045-0.063c-0.02-0.027-0.032-0.049-0.036-0.066
		c-0.008-0.008-0.02-0.025-0.036-0.053c-0.004,0.02-0.006,0.041-0.006,0.063s0,0.043,0,0.063c-0.004,0.02-0.006,0.047-0.006,0.078
		c0,0.016-0.002,0.031-0.006,0.043c0.012,0.023,0.029,0.053,0.051,0.086c0.022,0.035,0.049,0.074,0.081,0.117
		c0.088,0.115,0.204,0.234,0.348,0.354c-0.004-0.008-0.008-0.016-0.012-0.023s-0.008-0.016-0.012-0.023
		c-0.008-0.012-0.016-0.029-0.024-0.049s-0.016-0.035-0.024-0.047V97.968z M79.022,88.942c-0.004,0.008-0.008,0.014-0.012,0.018
		c-0.004,0.006-0.008,0.012-0.012,0.02C79.014,88.964,79.022,88.95,79.022,88.942z"/>
	<path fill="#757575" d="M91.994,93.856c0.1-0.055,0.198-0.098,0.294-0.125c0.096-0.029,0.182-0.043,0.258-0.043
		c0.148,0,0.248,0.049,0.3,0.145c0.024,0.049,0.031,0.104,0.021,0.164c-0.01,0.063-0.035,0.125-0.075,0.188
		c-0.04,0.061-0.094,0.123-0.162,0.186s-0.144,0.119-0.228,0.17c-0.016,0.01-0.032,0.02-0.048,0.031
		c-0.016,0.012-0.032,0.021-0.048,0.029c-0.008,0.004-0.017,0.008-0.027,0.012s-0.019,0.008-0.027,0.012
		c-0.032,0.014-0.067,0.029-0.105,0.049s-0.086,0.047-0.144,0.078s-0.128,0.072-0.21,0.119c-0.082,0.049-0.181,0.109-0.297,0.182
		h0.006c-0.192,0.119-0.432,0.275-0.72,0.471c-0.288,0.193-0.63,0.447-1.026,0.758h0.006c-0.192,0.156-0.406,0.338-0.642,0.543
		c-0.236,0.207-0.485,0.438-0.747,0.691c-0.262,0.254-0.534,0.529-0.816,0.83c-0.282,0.301-0.565,0.621-0.849,0.961
		c-0.32,0.398-0.644,0.848-0.972,1.344s-0.65,1.041-0.966,1.637c-0.316,0.598-0.62,1.242-0.912,1.939
		c-0.292,0.695-0.562,1.443-0.81,2.244v-0.006c-0.008,0.035-0.017,0.064-0.027,0.086c-0.01,0.021-0.021,0.043-0.033,0.063
		c-0.004,0.008-0.012,0.021-0.024,0.039s-0.022,0.035-0.03,0.051l-0.084,0.084l-0.012-0.012c-0.016,0.012-0.031,0.023-0.045,0.033
		c-0.014,0.01-0.025,0.02-0.033,0.027c-0.044,0.016-0.091,0.025-0.141,0.029c-0.05,0.004-0.095,0-0.135-0.012
		c-0.044-0.016-0.084-0.035-0.12-0.061c-0.036-0.023-0.062-0.047-0.078-0.07l-0.006-0.014c-0.04-0.039-0.064-0.086-0.072-0.137
		c-0.012-0.037-0.018-0.059-0.018-0.066c-0.004-0.012-0.006-0.027-0.006-0.049c0-0.02,0-0.035,0-0.047v-0.168
		c0-0.008,0-0.016,0.003-0.023c0.002-0.01,0.003-0.018,0.003-0.025c0.008-0.068,0.016-0.135,0.024-0.201
		c0.008-0.064,0.016-0.129,0.024-0.188c0.02-0.105,0.043-0.207,0.069-0.311c0.026-0.102,0.049-0.199,0.069-0.291l-0.006,0.006
		c0.004-0.016,0.007-0.029,0.009-0.041s0.005-0.025,0.009-0.043c0.052-0.203,0.103-0.395,0.153-0.572
		c0.05-0.178,0.099-0.346,0.147-0.5c0.096-0.309,0.187-0.598,0.273-0.865s0.179-0.545,0.279-0.834l0.09-0.252
		c0.016-0.043,0.031-0.086,0.045-0.129c0.014-0.041,0.029-0.084,0.045-0.129c0.032-0.088,0.064-0.18,0.096-0.273
		c0.032-0.094,0.066-0.193,0.102-0.297c0.092-0.264,0.198-0.563,0.318-0.896c0.12-0.334,0.253-0.707,0.399-1.115
		c0.146-0.41,0.308-0.861,0.486-1.354C85,97.415,85.194,96.88,85.406,96.3c0.076-0.209,0.153-0.418,0.231-0.631
		c0.078-0.213,0.153-0.414,0.225-0.605c-0.136,0.1-0.27,0.195-0.402,0.287c-0.132,0.092-0.26,0.18-0.384,0.264
		c-0.264,0.176-0.516,0.34-0.756,0.49c-0.24,0.148-0.472,0.287-0.696,0.41c-0.112,0.061-0.226,0.117-0.342,0.168
		c-0.116,0.053-0.228,0.1-0.336,0.145c-0.06,0.023-0.122,0.043-0.186,0.061c-0.064,0.016-0.13,0.029-0.198,0.041h-0.042
		c-0.032,0.004-0.065,0.008-0.099,0.01c-0.034,0.002-0.073-0.002-0.117-0.01c-0.056-0.004-0.113-0.02-0.171-0.047
		c-0.058-0.029-0.113-0.068-0.165-0.121l-0.006-0.006c-0.028-0.02-0.056-0.055-0.084-0.102l-0.024-0.043l-0.012-0.023
		c-0.012-0.012-0.02-0.025-0.024-0.043c-0.008-0.023-0.012-0.041-0.012-0.053c-0.008-0.027-0.016-0.053-0.024-0.072
		c-0.008-0.02-0.014-0.035-0.018-0.049c-0.008-0.016-0.012-0.027-0.012-0.035c-0.008-0.061-0.012-0.127-0.012-0.197
		c0-0.072,0.004-0.137,0.012-0.193c0.008-0.092,0.024-0.18,0.048-0.266s0.046-0.168,0.066-0.244
		c0.032-0.107,0.071-0.213,0.117-0.314s0.087-0.193,0.123-0.273c0.004-0.008,0.007-0.016,0.009-0.023s0.005-0.016,0.009-0.023
		l-0.006,0.035c0-0.004,0.001-0.008,0.003-0.01c0.002-0.002,0.003-0.004,0.003-0.008c0-0.012,0-0.025,0-0.037
		s0.008-0.027,0.024-0.047c0.084-0.168,0.153-0.299,0.207-0.393c0.054-0.096,0.091-0.16,0.111-0.195
		c0.056-0.092,0.118-0.172,0.186-0.24s0.136-0.121,0.204-0.16c0.068-0.037,0.134-0.059,0.198-0.064s0.118,0.004,0.162,0.033
		c0.044,0.031,0.075,0.07,0.093,0.115c0.018,0.047,0.027,0.098,0.027,0.154c0,0.076-0.017,0.164-0.051,0.264
		c-0.034,0.1-0.079,0.201-0.135,0.307l-0.006,0.006v-0.006c-0.004,0.008-0.007,0.012-0.009,0.014s-0.005,0.008-0.009,0.016
		c-0.012,0.02-0.024,0.041-0.036,0.063s-0.022,0.041-0.03,0.057c-0.032,0.045-0.076,0.119-0.132,0.223
		c-0.032,0.053-0.066,0.111-0.102,0.178c-0.036,0.064-0.07,0.139-0.102,0.219c-0.036,0.08-0.075,0.174-0.117,0.285
		c-0.042,0.109-0.079,0.236-0.111,0.381c-0.008,0.027-0.013,0.057-0.015,0.086c-0.002,0.031-0.003,0.055-0.003,0.07v0.072
		c0.032-0.004,0.066-0.01,0.102-0.016c0.036-0.006,0.076-0.02,0.12-0.039c0.216-0.076,0.445-0.18,0.687-0.309
		c0.242-0.131,0.495-0.275,0.759-0.436c0.12-0.072,0.256-0.156,0.408-0.256c0.152-0.098,0.31-0.203,0.474-0.314
		s0.332-0.229,0.504-0.348c0.172-0.121,0.338-0.238,0.498-0.354l0.072-0.055c0.02-0.016,0.04-0.029,0.06-0.039
		c0.02-0.01,0.04-0.023,0.06-0.039c0.004,0,0.01-0.004,0.018-0.012c0.008-0.004,0.014-0.01,0.018-0.016s0.01-0.012,0.018-0.02
		l0.042-0.078l0.048,0.012l0.012-0.012l0.036-0.025c0.008-0.008,0.018-0.016,0.03-0.027c0.012-0.01,0.022-0.018,0.03-0.025
		l0.09-0.09c0.02,0.02,0.052,0.047,0.096,0.08s0.072,0.055,0.084,0.063c0.036,0.033,0.06,0.053,0.072,0.061
		c0.012,0.008,0.012,0.008,0,0h-0.012c0.016,0.008,0.034,0.02,0.054,0.035c0.02,0.018,0.048,0.035,0.084,0.055
		c-0.02,0.057-0.042,0.111-0.066,0.168s-0.04,0.092-0.048,0.107c0,0.004-0.001,0.01-0.003,0.014s-0.003,0.008-0.003,0.012
		c-0.004,0.008-0.008,0.018-0.012,0.033c-0.004,0.014-0.008,0.023-0.012,0.031c-0.004,0.014-0.01,0.027-0.018,0.043
		s-0.014,0.031-0.018,0.049c-0.008,0.02-0.015,0.039-0.021,0.057c-0.006,0.018-0.013,0.037-0.021,0.057
		c-0.028,0.072-0.056,0.145-0.084,0.219s-0.058,0.148-0.09,0.225c-0.088,0.225-0.181,0.463-0.279,0.717
		c-0.098,0.254-0.195,0.51-0.291,0.766c-0.316,0.832-0.591,1.568-0.825,2.209c-0.234,0.639-0.437,1.209-0.609,1.709
		c-0.172,0.5-0.32,0.941-0.444,1.322c-0.124,0.383-0.234,0.73-0.33,1.041c0.02-0.039,0.04-0.08,0.06-0.119s0.04-0.078,0.06-0.113
		c0.148-0.281,0.29-0.541,0.426-0.781c0.136-0.24,0.268-0.461,0.396-0.666c0.128-0.199,0.252-0.391,0.372-0.576
		c0.12-0.184,0.244-0.367,0.372-0.549c0.128-0.182,0.261-0.365,0.399-0.551c0.138-0.188,0.289-0.383,0.453-0.592
		c0.528-0.648,1.02-1.195,1.476-1.641s0.864-0.828,1.224-1.143c0.36-0.313,0.672-0.57,0.936-0.771s0.49-0.373,0.678-0.514
		c0.188-0.135,0.346-0.248,0.474-0.336s0.242-0.164,0.342-0.23c0.1-0.066,0.192-0.127,0.276-0.18
		C91.796,93.974,91.89,93.917,91.994,93.856z"/>
	<path fill="#757575" d="M101.427,93.653c0.139,0,0.237,0.045,0.293,0.137l0.006-0.006c0.028,0.049,0.041,0.104,0.037,0.162
		c-0.004,0.061-0.024,0.121-0.061,0.184s-0.085,0.125-0.146,0.186c-0.063,0.063-0.136,0.117-0.22,0.166
		c-0.028,0.016-0.06,0.033-0.093,0.051c-0.034,0.018-0.075,0.039-0.123,0.063c-0.02,0.008-0.041,0.018-0.063,0.029
		c-0.022,0.014-0.047,0.027-0.075,0.043c-0.096,0.045-0.225,0.102-0.387,0.174s-0.373,0.164-0.633,0.275
		c-0.26,0.113-0.581,0.244-0.963,0.396s-0.845,0.322-1.389,0.51c-0.264,0.092-0.558,0.189-0.882,0.291
		c-0.324,0.102-0.664,0.205-1.02,0.309c-0.18,0.053-0.367,0.105-0.561,0.156c-0.194,0.053-0.395,0.105-0.603,0.156
		c-0.216,0.053-0.443,0.104-0.681,0.156c-0.238,0.053-0.465,0.096-0.681,0.133c-0.044,0.008-0.087,0.012-0.129,0.014
		s-0.085,0.008-0.129,0.016c-0.012,0.004-0.025,0.008-0.039,0.01c-0.014,0.002-0.033,0.002-0.057,0.002
		c-0.008,0-0.017,0.002-0.027,0.004c-0.01,0.002-0.019,0.002-0.027,0.002h-0.12c-0.008,0-0.015,0-0.021-0.002
		c-0.006-0.002-0.015-0.004-0.027-0.004c-0.032,0-0.061,0-0.087-0.002s-0.061-0.012-0.105-0.027
		c-0.104-0.072-0.18-0.139-0.228-0.201c-0.048-0.063-0.086-0.123-0.114-0.184c-0.024-0.061-0.044-0.119-0.06-0.176
		c-0.016-0.059-0.028-0.113-0.036-0.166c-0.008-0.064-0.014-0.127-0.018-0.191s-0.006-0.135-0.006-0.211
		c0-0.143,0.006-0.277,0.018-0.398c0.012-0.123,0.026-0.238,0.042-0.352c0.016-0.115,0.03-0.209,0.042-0.279
		c0.012-0.068,0.023-0.131,0.033-0.186c0.01-0.053,0.022-0.109,0.036-0.168s0.031-0.133,0.051-0.225
		c-0.076,0-0.136-0.014-0.18-0.043c-0.044-0.027-0.078-0.064-0.102-0.113c-0.044-0.104-0.031-0.219,0.039-0.342
		s0.169-0.238,0.297-0.342l-0.006,0.012c0.016-0.016,0.036-0.031,0.06-0.049l0.012-0.006c0.004,0,0.006-0.002,0.006-0.006
		c0.012-0.008,0.025-0.014,0.039-0.02c0.014-0.008,0.033-0.02,0.057-0.039c0.004,0,0.008-0.002,0.012-0.008
		c0.12-0.436,0.23-0.818,0.33-1.148c0.1-0.33,0.196-0.633,0.288-0.908c0.092-0.281,0.185-0.555,0.279-0.822
		c0.094-0.268,0.201-0.555,0.321-0.857c0.12-0.301,0.265-0.645,0.435-1.033c0.17-0.387,0.385-0.842,0.645-1.361
		c0.18-0.348,0.351-0.664,0.513-0.945s0.333-0.539,0.513-0.771l0.042-0.041l-0.012,0.006c0.032-0.045,0.077-0.094,0.135-0.146
		c0.058-0.055,0.113-0.102,0.165-0.143l0.012-0.006c0.004,0,0.006-0.002,0.006-0.006c0.032-0.02,0.064-0.037,0.096-0.051
		c0.032-0.014,0.064-0.023,0.096-0.027c0.044-0.008,0.089-0.006,0.135,0.004s0.089,0.025,0.129,0.045
		c0.08,0.043,0.136,0.094,0.168,0.15c0.032,0.055,0.056,0.107,0.072,0.156c0.024,0.08,0.039,0.154,0.045,0.225
		c0.006,0.07,0.007,0.139,0.003,0.207c0,0.068-0.002,0.129-0.006,0.182c-0.004,0.055-0.01,0.105-0.018,0.154
		c-0.024,0.184-0.059,0.377-0.105,0.578c-0.046,0.203-0.097,0.4-0.153,0.592c-0.052,0.18-0.108,0.369-0.168,0.566
		c-0.06,0.199-0.128,0.398-0.204,0.604c-0.24,0.648-0.485,1.223-0.735,1.723s-0.479,0.93-0.687,1.289
		c-0.216,0.367-0.408,0.674-0.576,0.918c-0.168,0.244-0.31,0.436-0.426,0.576c-0.104,0.129-0.205,0.244-0.303,0.352
		c-0.098,0.105-0.193,0.205-0.285,0.297c-0.06,0.059-0.114,0.113-0.162,0.158c-0.048,0.047-0.098,0.092-0.15,0.135
		c-0.008,0.025-0.014,0.043-0.018,0.055c-0.004,0.008-0.006,0.014-0.006,0.018s-0.002,0.01-0.006,0.018v-0.006
		c-0.044,0.18-0.09,0.396-0.138,0.646s-0.088,0.512-0.12,0.787c-0.008,0.057-0.013,0.119-0.015,0.189s-0.003,0.133-0.003,0.189
		c0,0.084,0.004,0.168,0.012,0.252c0.008,0.084,0.022,0.168,0.042,0.252c0,0.016,0.014,0.045,0.042,0.084
		c0.068,0.004,0.14,0.002,0.216-0.01c0.076-0.01,0.154-0.021,0.234-0.039H93.08c0.384-0.066,0.755-0.146,1.113-0.238
		c0.358-0.092,0.677-0.178,0.957-0.258c0.312-0.094,0.608-0.186,0.888-0.277s0.546-0.184,0.798-0.275
		c0.52-0.18,0.972-0.346,1.356-0.498c0.384-0.152,0.72-0.293,1.008-0.42c0.48-0.209,0.85-0.383,1.11-0.521
		c0.26-0.141,0.44-0.238,0.54-0.295c0.004,0,0.008-0.002,0.012-0.006c0.004-0.004,0.01-0.008,0.018-0.012
		c0.008-0.004,0.014-0.01,0.018-0.018c0.004,0,0.002,0.004-0.006,0.012c0.1-0.057,0.196-0.098,0.288-0.127
		C101.272,93.667,101.354,93.653,101.427,93.653z M93.392,92.423c-0.02,0.061-0.032,0.094-0.036,0.1s-0.007,0.008-0.009,0.008
		s-0.005,0.008-0.009,0.021c-0.004,0.014-0.018,0.057-0.042,0.129c0.1-0.115,0.208-0.252,0.324-0.408s0.242-0.336,0.378-0.539
		c0.112-0.172,0.236-0.375,0.372-0.609c0.136-0.234,0.276-0.492,0.42-0.773c0.144-0.283,0.289-0.584,0.435-0.906
		s0.287-0.656,0.423-1c0.08-0.215,0.155-0.439,0.225-0.672s0.133-0.455,0.189-0.672v0.006c0.024-0.104,0.047-0.217,0.069-0.342
		c0.022-0.123,0.041-0.258,0.057-0.402c0.012-0.072,0.018-0.143,0.018-0.215c-0.02,0.031-0.041,0.064-0.063,0.098
		c-0.022,0.035-0.043,0.068-0.063,0.1c-0.076,0.125-0.153,0.256-0.231,0.393c-0.078,0.139-0.151,0.275-0.219,0.412
		c-0.148,0.287-0.296,0.588-0.444,0.902s-0.296,0.639-0.444,0.975c-0.16,0.369-0.303,0.707-0.429,1.018s-0.235,0.582-0.327,0.818
		c-0.008,0.021-0.018,0.045-0.03,0.072c-0.012,0.029-0.022,0.053-0.03,0.072c-0.008,0.02-0.014,0.039-0.018,0.055
		s-0.01,0.031-0.018,0.047c-0.02,0.053-0.041,0.107-0.063,0.162c-0.022,0.057-0.043,0.107-0.063,0.156l0.006-0.006
		c-0.068,0.168-0.133,0.334-0.195,0.498S93.452,92.251,93.392,92.423z"/>
	<path fill="#757575" d="M112.796,93.804c0.049,0.104,0.045,0.209-0.012,0.314s-0.139,0.188-0.246,0.242
		c-0.023,0.012-0.063,0.023-0.113,0.031c-0.004,0-0.006,0-0.006,0.002s-0.003,0.004-0.007,0.004
		c-0.012,0.004-0.03,0.008-0.057,0.014s-0.063,0.018-0.108,0.033s-0.105,0.039-0.18,0.066s-0.167,0.063-0.279,0.102
		c-0.176,0.064-0.398,0.148-0.669,0.25s-0.61,0.229-1.022,0.381s-0.9,0.328-1.465,0.531c-0.563,0.201-1.231,0.42-2.004,0.656
		c-0.783,0.236-1.502,0.422-2.154,0.555c-0.651,0.135-1.252,0.207-1.799,0.219c-0.281,0.004-0.549-0.014-0.805-0.057
		c-0.256-0.041-0.492-0.123-0.708-0.242c-0.232-0.137-0.408-0.305-0.528-0.504c-0.056-0.1-0.101-0.205-0.135-0.313
		c-0.034-0.107-0.055-0.203-0.063-0.287c-0.012-0.182-0.005-0.346,0.021-0.492c0.026-0.148,0.053-0.283,0.081-0.402
		c0.044-0.141,0.079-0.252,0.105-0.334c0.026-0.082,0.051-0.15,0.075-0.207c0.044-0.107,0.087-0.203,0.129-0.285
		s0.073-0.139,0.093-0.17c0.032-0.053,0.072-0.096,0.12-0.133c0.048-0.035,0.098-0.061,0.15-0.078
		c0.052-0.016,0.105-0.02,0.159-0.012s0.104,0.027,0.153,0.055c0.08,0.061,0.132,0.143,0.156,0.246
		c0.023,0.104,0.012,0.201-0.037,0.293v-0.006c-0.02,0.049-0.031,0.074-0.035,0.078s-0.008,0.01-0.012,0.018
		c-0.013,0.021-0.028,0.045-0.049,0.072c-0.02,0.029-0.044,0.064-0.072,0.109c-0.02,0.027-0.041,0.064-0.065,0.113
		s-0.052,0.105-0.084,0.174v-0.006c-0.032,0.072-0.065,0.152-0.099,0.24c-0.034,0.088-0.063,0.186-0.087,0.293h0.006
		c-0.012,0.057-0.022,0.115-0.03,0.174c-0.008,0.061-0.012,0.123-0.012,0.188c0.004,0.063,0.012,0.127,0.024,0.188
		c0.012,0.063,0.034,0.119,0.066,0.172c0.032,0.057,0.078,0.111,0.138,0.164c0.06,0.055,0.13,0.104,0.21,0.148
		c0.184,0.092,0.395,0.15,0.631,0.174c0.172,0.023,0.35,0.035,0.533,0.035c0.188,0,0.396-0.012,0.624-0.035s0.462-0.055,0.702-0.09
		c0.172-0.029,0.357-0.063,0.555-0.105c0.198-0.041,0.402-0.09,0.612-0.141c0.21-0.053,0.422-0.107,0.636-0.166
		c0.215-0.057,0.424-0.117,0.627-0.176c0.316-0.096,0.627-0.197,0.934-0.301c0.306-0.104,0.598-0.205,0.875-0.307
		c0.279-0.1,0.537-0.193,0.775-0.283c0.237-0.092,0.446-0.172,0.627-0.244c0.352-0.141,0.666-0.27,0.941-0.387
		s0.494-0.213,0.654-0.285h-0.006c0.199-0.092,0.352-0.164,0.455-0.219c0.104-0.055,0.188-0.098,0.252-0.129
		c0.049-0.023,0.092-0.045,0.133-0.063c0.039-0.02,0.084-0.037,0.132-0.059c0.116-0.043,0.228-0.047,0.336-0.012
		C112.677,93.647,112.752,93.71,112.796,93.804z M103.538,90.888c-0.035,0.004-0.072,0.008-0.107,0.012
		c-0.037,0.004-0.07,0.008-0.103,0.012c-0.024,0.004-0.048,0.006-0.071,0.008c-0.024,0.004-0.047,0.006-0.066,0.01
		c-0.225,0.027-0.412,0.049-0.564,0.063c-0.152,0.016-0.279,0.021-0.384,0.021c-0.192,0-0.325-0.029-0.399-0.09
		s-0.115-0.154-0.123-0.281c-0.008-0.117,0.019-0.215,0.078-0.295c0.061-0.08,0.131-0.119,0.211-0.119c0.008,0,0.019,0,0.032,0
		c0.015,0,0.033,0.004,0.058,0.012l-0.006-0.006c0.027,0.008,0.084,0.016,0.168,0.023s0.229,0.012,0.438,0.012
		c0.172,0,0.391-0.004,0.654-0.012s0.596-0.023,0.996-0.049c0.308-0.02,0.561-0.039,0.759-0.057s0.356-0.035,0.478-0.053
		c0.119-0.02,0.207-0.035,0.264-0.049c0.056-0.014,0.098-0.027,0.125-0.039c0.021-0.008,0.037-0.014,0.052-0.016
		c0.014-0.002,0.03-0.004,0.051-0.008c0.04-0.016,0.084-0.029,0.132-0.039c0.049-0.01,0.094-0.01,0.135,0.002
		c0.043,0.014,0.078,0.039,0.108,0.082c0.03,0.041,0.049,0.109,0.058,0.201c0.004,0.1-0.02,0.178-0.069,0.236
		s-0.128,0.105-0.234,0.141c-0.106,0.037-0.239,0.063-0.399,0.078s-0.348,0.033-0.563,0.049h0.006
		c-0.024,0.004-0.05,0.006-0.077,0.006c-0.029,0-0.057,0.002-0.084,0.006c-0.205,0.016-0.436,0.033-0.693,0.055
		C104.136,90.823,103.851,90.851,103.538,90.888z"/>
	<path fill="#757575" d="M126.542,93.821c0.061-0.049,0.124-0.084,0.192-0.107c0.067-0.025,0.132-0.037,0.192-0.037
		c0.119,0,0.215,0.047,0.287,0.139c0.028,0.043,0.045,0.092,0.049,0.146s-0.004,0.109-0.021,0.168s-0.045,0.115-0.081,0.172
		c-0.036,0.055-0.08,0.105-0.132,0.148c-0.008,0.004-0.018,0.014-0.03,0.025c-0.008,0.004-0.024,0.014-0.048,0.029l-0.036,0.023
		l-0.036,0.02h0.006c-0.056,0.031-0.117,0.066-0.186,0.107c-0.068,0.039-0.148,0.092-0.24,0.156
		c0.016-0.008,0.012-0.002-0.015,0.018s-0.056,0.039-0.087,0.061c-0.108,0.07-0.243,0.158-0.405,0.258s-0.347,0.213-0.555,0.342
		c-0.132,0.08-0.279,0.166-0.441,0.258c-0.161,0.092-0.339,0.186-0.53,0.281c-0.188,0.092-0.4,0.191-0.637,0.297
		c-0.236,0.107-0.492,0.205-0.768,0.297c-0.145,0.049-0.299,0.098-0.465,0.148c-0.166,0.049-0.34,0.096-0.522,0.137
		c-0.183,0.043-0.371,0.076-0.567,0.104c-0.195,0.025-0.397,0.041-0.605,0.045s-0.432-0.012-0.669-0.043
		c-0.238-0.031-0.472-0.086-0.699-0.162c-0.235-0.08-0.474-0.188-0.714-0.32c-0.24-0.135-0.462-0.291-0.666-0.471
		c-0.248-0.229-0.448-0.449-0.6-0.664c-0.152-0.213-0.28-0.408-0.385-0.584c-0.044-0.068-0.082-0.135-0.113-0.199
		c-0.032-0.063-0.064-0.127-0.096-0.191c-0.145,0.068-0.31,0.148-0.496,0.24c-0.186,0.092-0.389,0.203-0.608,0.336
		c-0.181,0.107-0.392,0.238-0.636,0.393s-0.5,0.316-0.769,0.488c-0.024,0.018-0.05,0.033-0.078,0.049s-0.052,0.031-0.071,0.049
		c-0.076,0.051-0.158,0.102-0.244,0.152s-0.17,0.104-0.254,0.158c-0.232,0.137-0.461,0.27-0.685,0.396
		c-0.224,0.129-0.442,0.238-0.653,0.33c-0.117,0.049-0.233,0.094-0.352,0.135c-0.118,0.043-0.229,0.074-0.333,0.094
		c-0.092,0.02-0.2,0.029-0.323,0.029c-0.076,0-0.148-0.004-0.217-0.012s-0.134-0.023-0.197-0.049
		c-0.009-0.004-0.018-0.008-0.027-0.012s-0.02-0.008-0.027-0.012c-0.004-0.004-0.008-0.006-0.012-0.006s-0.01-0.002-0.018-0.006
		h-0.013l-0.103-0.055c-0.063-0.051-0.107-0.1-0.131-0.143l0.006,0.006l-0.019-0.037l-0.012-0.012h0.006
		c-0.024-0.055-0.037-0.1-0.039-0.131c-0.002-0.033-0.003-0.064-0.003-0.098v-0.078c0.008-0.066,0.02-0.127,0.036-0.18
		c0.016-0.051,0.034-0.102,0.054-0.148l-0.006,0.006c0.061-0.172,0.126-0.328,0.197-0.469c0.068-0.133,0.135-0.258,0.199-0.375
		c0.063-0.117,0.123-0.225,0.18-0.32c0.212-0.373,0.375-0.652,0.488-0.84c0.115-0.189,0.186-0.305,0.213-0.35
		c0.041-0.059,0.088-0.111,0.145-0.154c0.057-0.045,0.113-0.078,0.171-0.1s0.115-0.031,0.171-0.027
		c0.057,0.004,0.106,0.02,0.15,0.049v-0.006c0.052,0.031,0.09,0.076,0.113,0.135c0.024,0.057,0.037,0.119,0.037,0.182
		c0,0.057-0.01,0.115-0.027,0.174c-0.018,0.061-0.049,0.121-0.094,0.182l0.013-0.014c-0.013,0.021-0.028,0.047-0.048,0.078
		c-0.021,0.033-0.04,0.059-0.061,0.078c-0.039,0.053-0.096,0.131-0.168,0.234s-0.172,0.256-0.3,0.457
		c-0.008,0.008-0.015,0.018-0.021,0.031c-0.006,0.016-0.014,0.025-0.021,0.033c-0.004,0.008-0.007,0.014-0.009,0.016
		s-0.005,0.008-0.009,0.016c-0.008,0.016-0.017,0.029-0.024,0.039s-0.019,0.025-0.03,0.045l0.006-0.006
		c-0.039,0.059-0.082,0.123-0.125,0.188c-0.045,0.066-0.088,0.141-0.133,0.221c-0.072,0.119-0.142,0.248-0.209,0.383
		c-0.037,0.068-0.072,0.137-0.105,0.207c-0.034,0.07-0.065,0.141-0.094,0.213c0.008,0,0.017,0.002,0.024,0.004
		c0.009,0.002,0.017,0.002,0.024,0.002c0.08,0,0.177-0.008,0.291-0.023c0.113-0.016,0.215-0.037,0.303-0.066
		c0.1-0.031,0.213-0.076,0.339-0.131c0.126-0.057,0.256-0.117,0.39-0.184c0.135-0.066,0.27-0.137,0.405-0.211
		c0.136-0.072,0.265-0.146,0.384-0.219c0.137-0.08,0.271-0.162,0.402-0.248s0.256-0.166,0.372-0.238
		c0.044-0.027,0.089-0.055,0.135-0.084c0.046-0.027,0.089-0.055,0.13-0.084c0.016-0.008,0.033-0.018,0.053-0.029
		c0.021-0.012,0.039-0.023,0.055-0.035c0.031-0.021,0.064-0.041,0.099-0.061s0.067-0.041,0.099-0.061H114.8
		c0.192-0.119,0.373-0.23,0.543-0.332c0.17-0.104,0.328-0.195,0.472-0.279c0.132-0.08,0.265-0.16,0.399-0.236
		c0.133-0.078,0.254-0.146,0.362-0.201l0.175-0.084l0.168-0.066h-0.007l-0.054,0.012l0.035-0.018
		c0.009-0.004,0.021-0.012,0.037-0.021c0.016-0.01,0.037-0.029,0.065-0.057l0.39,0.209c0.004,0.008,0.012,0.025,0.021,0.049
		s0.018,0.039,0.021,0.047v-0.006c0.008,0.021,0.014,0.035,0.018,0.043s0.008,0.016,0.012,0.023c0.092,0.164,0.188,0.32,0.288,0.469
		s0.222,0.313,0.366,0.492h-0.006c0.064,0.076,0.135,0.156,0.213,0.24s0.169,0.176,0.273,0.275h-0.006
		c0.1,0.092,0.211,0.184,0.332,0.275c0.122,0.092,0.266,0.18,0.43,0.264c0.216,0.117,0.42,0.201,0.611,0.252
		c0.192,0.053,0.372,0.088,0.541,0.109c0.18,0.023,0.34,0.035,0.479,0.035c0.06,0,0.128-0.002,0.204-0.006s0.147-0.01,0.216-0.018
		c0.235-0.033,0.481-0.08,0.737-0.145s0.508-0.139,0.756-0.223c0.441-0.168,0.822-0.34,1.144-0.516
		c0.322-0.176,0.591-0.328,0.808-0.455h-0.006c0.231-0.148,0.424-0.277,0.575-0.385c0.152-0.107,0.282-0.201,0.39-0.281
		c0.108-0.084,0.201-0.156,0.279-0.217s0.143-0.111,0.195-0.156c0.008-0.008,0.014-0.014,0.018-0.018s0.01-0.01,0.019-0.018
		c0.036-0.031,0.071-0.061,0.108-0.088C126.458,93.882,126.498,93.853,126.542,93.821z"/>
	<path fill="#757575" d="M136.993,93.827c0.025,0.047,0.033,0.102,0.025,0.162c-0.009,0.061-0.033,0.121-0.072,0.184
		c-0.041,0.061-0.092,0.123-0.153,0.186s-0.136,0.117-0.22,0.164c-0.012,0.008-0.024,0.016-0.039,0.021
		c-0.014,0.006-0.028,0.014-0.045,0.021c-0.012,0.008-0.025,0.016-0.041,0.023c-0.021,0.016-0.051,0.031-0.09,0.049l0.012-0.006
		c-0.053,0.027-0.125,0.066-0.219,0.115c-0.095,0.051-0.235,0.127-0.424,0.232v-0.006c-0.18,0.1-0.406,0.229-0.678,0.387
		s-0.613,0.361-1.025,0.609h0.006c-0.404,0.252-0.881,0.553-1.432,0.902c-0.55,0.35-1.181,0.775-1.893,1.275
		c-0.385,0.271-0.795,0.58-1.23,0.924s-0.878,0.709-1.326,1.098c-0.236,0.203-0.473,0.416-0.711,0.639s-0.477,0.457-0.717,0.705
		c-0.115,0.115-0.224,0.229-0.324,0.336c-0.1,0.107-0.207,0.227-0.324,0.354c-0.14,0.332-0.272,0.637-0.398,0.916
		c-0.126,0.277-0.247,0.537-0.363,0.777v0.006c-0.008,0.02-0.017,0.039-0.027,0.057c-0.01,0.018-0.018,0.037-0.026,0.057
		c-0.008,0.012-0.013,0.023-0.015,0.037c-0.002,0.012-0.008,0.021-0.016,0.029c-0.008,0.016-0.016,0.035-0.023,0.061
		c-0.112,0.234-0.223,0.451-0.33,0.645s-0.196,0.383-0.264,0.566c-0.032,0.092-0.08,0.195-0.145,0.309
		c-0.064,0.115-0.133,0.221-0.207,0.318s-0.15,0.176-0.229,0.234s-0.149,0.074-0.215,0.049c-0.066-0.027-0.119-0.105-0.16-0.234
		c-0.039-0.131-0.06-0.336-0.06-0.615c0-0.213,0.026-0.424,0.078-0.637l-0.006,0.006c0.071-0.307,0.192-0.633,0.36-0.977
		c0.16-0.316,0.371-0.658,0.636-1.023c0.264-0.367,0.61-0.773,1.038-1.221c0.096-0.24,0.193-0.49,0.291-0.75
		s0.199-0.545,0.303-0.854c0.229-0.691,0.424-1.352,0.588-1.979c0.164-0.629,0.29-1.199,0.378-1.711
		c-0.044,0.023-0.087,0.045-0.129,0.063c-0.042,0.02-0.083,0.035-0.123,0.053l0.007-0.008c-0.129,0.061-0.263,0.105-0.402,0.133
		c-0.141,0.027-0.28,0.031-0.42,0.012c-0.156-0.02-0.301-0.076-0.433-0.168c-0.056-0.043-0.106-0.09-0.153-0.141
		c-0.045-0.051-0.086-0.102-0.123-0.152c-0.063-0.102-0.114-0.209-0.152-0.328c-0.038-0.117-0.057-0.229-0.057-0.332
		c0-0.113,0.015-0.217,0.045-0.313c0.029-0.096,0.063-0.182,0.099-0.258c0.067-0.133,0.146-0.248,0.233-0.348
		s0.17-0.184,0.246-0.252c0.152-0.133,0.27-0.227,0.352-0.283c0.082-0.055,0.141-0.096,0.177-0.119
		c0.084-0.057,0.169-0.096,0.255-0.121c0.086-0.023,0.167-0.035,0.243-0.035c0.088,0,0.164,0.018,0.228,0.051
		c0.064,0.035,0.104,0.08,0.121,0.135l-0.006-0.012c0.023,0.053,0.028,0.107,0.014,0.166c-0.014,0.057-0.041,0.115-0.08,0.174
		c-0.041,0.057-0.09,0.113-0.15,0.168c-0.061,0.053-0.124,0.104-0.191,0.152c-0.008,0.004-0.024,0.014-0.049,0.029
		c-0.008,0.008-0.017,0.016-0.027,0.02c-0.01,0.004-0.012,0.004-0.008,0c-0.033,0.02-0.067,0.041-0.105,0.064
		c-0.038,0.025-0.085,0.057-0.141,0.098c-0.045,0.031-0.092,0.068-0.142,0.109c-0.05,0.043-0.097,0.086-0.141,0.129
		c-0.044,0.053-0.089,0.115-0.136,0.188c-0.045,0.072-0.076,0.154-0.092,0.246c-0.013,0.063,0.01,0.145,0.065,0.246
		c0.028,0.043,0.06,0.082,0.093,0.115c0.034,0.035,0.073,0.057,0.117,0.064c0.076,0.016,0.156,0.014,0.243-0.004
		c0.086-0.018,0.175-0.047,0.267-0.086c0.092-0.045,0.197-0.104,0.315-0.178s0.229-0.148,0.333-0.225l0.006-0.006
		c0.008-0.008,0.018-0.018,0.029-0.027c0.013-0.01,0.022-0.02,0.031-0.027c0.008-0.008,0.014-0.014,0.021-0.018
		c0.006-0.004,0.019-0.012,0.039-0.023l0.09-0.061c0.008,0.008,0.019,0.014,0.032,0.018c0.015,0.004,0.027,0.01,0.039,0.018
		l0.037,0.02c0.012,0.008,0.043,0.021,0.093,0.045c0.05,0.021,0.11,0.051,0.183,0.086l-0.006,0.168v0.029l0.006,0.043l-0.012,0.055
		c-0.008,0.039-0.014,0.08-0.018,0.123c-0.004,0.041-0.011,0.084-0.019,0.129l-0.019,0.09c-0.004,0.016-0.006,0.031-0.008,0.047
		c-0.002,0.018-0.006,0.031-0.01,0.043s-0.006,0.023-0.006,0.035s-0.002,0.025-0.006,0.037l0.006-0.012
		c-0.008,0.043-0.016,0.086-0.023,0.129c-0.009,0.041-0.017,0.084-0.024,0.129c-0.032,0.164-0.072,0.346-0.12,0.545
		c-0.048,0.201-0.094,0.391-0.139,0.57c-0.043,0.188-0.098,0.395-0.161,0.617c-0.064,0.225-0.132,0.453-0.201,0.688
		c-0.07,0.234-0.142,0.467-0.216,0.699s-0.145,0.447-0.213,0.648c-0.017,0.043-0.03,0.082-0.043,0.113
		c-0.012,0.033-0.021,0.064-0.029,0.096c-0.016,0.041-0.025,0.066-0.027,0.076s-0.003,0.012-0.003,0.008
		c-0.004,0.014-0.009,0.027-0.015,0.045c-0.006,0.02-0.014,0.041-0.021,0.07c0.08-0.068,0.163-0.141,0.25-0.217
		c0.086-0.076,0.162-0.145,0.23-0.203l-0.006,0.006c0.008-0.008,0.018-0.016,0.029-0.025c0.012-0.008,0.022-0.016,0.03-0.023
		c0.216-0.188,0.423-0.363,0.621-0.527s0.381-0.313,0.549-0.443c0.328-0.266,0.653-0.518,0.976-0.76s0.666-0.498,1.035-0.766
		c0.619-0.439,1.168-0.82,1.644-1.139c0.476-0.32,0.894-0.6,1.254-0.834c0.364-0.236,0.672-0.436,0.924-0.596
		c0.253-0.158,0.468-0.297,0.648-0.414c0.044-0.027,0.088-0.055,0.132-0.084c0.044-0.027,0.084-0.053,0.12-0.076h-0.007
		c0.097-0.061,0.181-0.115,0.252-0.162c0.117-0.076,0.219-0.141,0.307-0.189c0.088-0.051,0.174-0.102,0.258-0.154
		c0.032-0.02,0.064-0.039,0.096-0.059c0.033-0.02,0.066-0.041,0.103-0.061c0.088-0.053,0.178-0.092,0.271-0.117
		c0.092-0.025,0.174-0.039,0.246-0.039c0.147,0,0.248,0.049,0.299,0.145H136.993z M126.771,100.438l0.006-0.006L126.771,100.438z"/>
</g>
<g>
	<g>
		<defs>
			<rect id="SVGID_1_" x="4.769" y="-6.976" width="192" height="104"/>
		</defs>
		<clipPath id="SVGID_2_">
			<use xlink:href="#SVGID_1_"  overflow="visible"/>
		</clipPath>
		<g clip-path="url(#SVGID_2_)">
			<defs>
				<rect id="SVGID_3_" x="4.769" y="-6.976" width="192" height="104"/>
			</defs>
			<clipPath id="SVGID_4_">
				<use xlink:href="#SVGID_3_"  overflow="visible"/>
			</clipPath>
			<g clip-path="url(#SVGID_4_)">
				<path fill="#757575" d="M26.651,54.408c-1.556,0-2.968-0.325-4.239-0.977s-2.369-1.502-3.293-2.554
					c-0.925-1.05-1.639-2.257-2.143-3.623c-0.504-1.365-0.757-2.763-0.757-4.191c0-1.491,0.269-2.92,0.804-4.285
					c0.536-1.366,1.271-2.573,2.206-3.624s2.038-1.886,3.309-2.506c1.271-0.619,2.652-0.93,4.144-0.93
					c1.533,0,2.941,0.331,4.223,0.992c1.281,0.662,2.379,1.529,3.293,2.601s1.623,2.284,2.127,3.64
					c0.505,1.355,0.756,2.726,0.756,4.112c0,1.513-0.268,2.952-0.803,4.317c-0.536,1.366-1.272,2.568-2.206,3.608
					c-0.935,1.04-2.038,1.87-3.309,2.489C29.493,54.099,28.122,54.408,26.651,54.408 M17.292,43.063
					c0,1.345,0.231,2.637,0.694,3.876c0.462,1.24,1.107,2.338,1.937,3.293c0.83,0.957,1.818,1.718,2.962,2.285
					c1.146,0.567,2.401,0.851,3.767,0.851c1.407,0,2.683-0.299,3.828-0.897c1.145-0.6,2.128-1.382,2.947-2.349
					c0.82-0.966,1.454-2.068,1.906-3.309c0.452-1.239,0.678-2.489,0.678-3.75c0-1.344-0.236-2.636-0.709-3.876
					c-0.472-1.239-1.13-2.337-1.97-3.293s-1.828-1.718-2.962-2.285c-1.134-0.566-2.374-0.851-3.718-0.851
					c-1.408,0-2.685,0.3-3.829,0.898c-1.146,0.599-2.127,1.382-2.947,2.348c-0.819,0.967-1.455,2.063-1.907,3.293
					C17.518,40.526,17.292,41.782,17.292,43.063 M24.193,25.354h0.977v2.584h-0.977V25.354z M28.165,25.354h0.977v2.584h-0.977
					V25.354z"/>
			</g>
			<g clip-path="url(#SVGID_4_)">
				<polygon fill="#757575" points="58.794,54.251 58.794,34.02 49.372,49.902 48.647,49.902 39.225,34.02 39.225,54.251 
					38.153,54.251 38.153,31.877 39.161,31.877 49.025,48.547 58.857,31.877 59.865,31.877 59.865,54.251 				"/>
			</g>
			<g clip-path="url(#SVGID_4_)">
				<polygon fill="#757575" points="75.937,53.242 75.937,54.251 61.158,54.251 61.158,31.877 75.653,31.877 75.653,32.885 
					62.229,32.885 62.229,42.308 73.983,42.308 73.983,43.315 62.229,43.315 62.229,53.242 				"/>
			</g>
			<g clip-path="url(#SVGID_4_)">
				<path fill="#757575" d="M77.292,54.251V31.877h9.201c0.925,0,1.78,0.199,2.568,0.599c0.788,0.399,1.466,0.919,2.033,1.56
					s1.008,1.371,1.324,2.19c0.315,0.82,0.472,1.649,0.472,2.489c0,0.861-0.131,1.681-0.393,2.458
					c-0.264,0.777-0.642,1.471-1.135,2.08c-0.494,0.609-1.077,1.113-1.749,1.513c-0.673,0.399-1.418,0.641-2.237,0.725l5.64,8.761
					h-1.26l-5.578-8.635h-7.815v8.635H77.292z M78.363,44.607h8.319c0.778,0,1.482-0.168,2.112-0.504
					c0.63-0.336,1.166-0.777,1.607-1.323s0.782-1.177,1.024-1.891c0.241-0.715,0.363-1.439,0.363-2.175
					c0-0.756-0.143-1.486-0.426-2.19c-0.284-0.703-0.667-1.323-1.15-1.859c-0.484-0.535-1.045-0.966-1.686-1.292
					c-0.642-0.325-1.329-0.488-2.064-0.488h-8.099V44.607z"/>
			</g>
			<g clip-path="url(#SVGID_4_)">
				<polygon fill="#565656" points="97.933,54.251 97.933,31.908 101.462,31.908 101.462,43.567 112.114,31.877 115.895,31.877 
					107.071,41.772 116.399,54.251 112.585,54.251 104.96,43.788 101.462,47.444 101.462,54.251 				"/>
			</g>
			<g clip-path="url(#SVGID_4_)">
				<path fill="#565656" d="M125.758,51.226c1.177,0,2.153-0.231,2.931-0.693s1.402-1.066,1.875-1.813
					c0.473-0.745,0.809-1.596,1.008-2.552c0.201-0.956,0.3-1.938,0.3-2.947V31.877h3.562v11.344c0,1.534-0.179,2.979-0.535,4.334
					c-0.358,1.354-0.926,2.542-1.703,3.561c-0.776,1.02-1.779,1.823-3.008,2.411c-1.229,0.588-2.705,0.882-4.429,0.882
					c-1.786,0-3.293-0.31-4.521-0.93c-1.23-0.619-2.223-1.449-2.979-2.489c-0.756-1.04-1.303-2.232-1.64-3.576
					c-0.336-1.345-0.504-2.742-0.504-4.192V31.877h3.531v11.344c0,1.03,0.098,2.022,0.299,2.979
					c0.199,0.956,0.535,1.807,1.008,2.553s1.104,1.345,1.891,1.796C123.631,51,124.603,51.226,125.758,51.226"/>
			</g>
			<g clip-path="url(#SVGID_4_)">
				<polygon fill="#565656" points="153.679,34.996 146.241,34.996 146.241,54.251 142.712,54.251 142.712,34.996 135.243,34.996 
					135.243,31.877 153.679,31.877 				"/>
			</g>
			<g clip-path="url(#SVGID_4_)">
				<polygon fill="#565656" points="152.009,54.251 152.009,31.877 155.538,31.877 155.538,51.131 167.544,51.131 167.544,54.251 
									"/>
			</g>
			<g clip-path="url(#SVGID_4_)">
				<path fill="#565656" d="M175.643,51.226c1.177,0,2.153-0.231,2.931-0.693s1.402-1.066,1.875-1.813
					c0.473-0.745,0.809-1.596,1.008-2.552c0.201-0.956,0.299-1.938,0.299-2.947V31.877h3.563v11.344
					c0,1.534-0.179,2.979-0.535,4.334c-0.359,1.354-0.926,2.542-1.703,3.561c-0.777,1.02-1.781,1.823-3.009,2.411
					c-1.229,0.588-2.704,0.882-4.428,0.882c-1.786,0-3.293-0.31-4.522-0.93c-1.229-0.619-2.222-1.449-2.978-2.489
					c-0.757-1.04-1.304-2.232-1.64-3.576c-0.336-1.345-0.504-2.742-0.504-4.192V31.877h3.53v11.344c0,1.03,0.099,2.022,0.3,2.979
					c0.199,0.956,0.535,1.807,1.008,2.553s1.103,1.345,1.891,1.796C173.516,51,174.487,51.226,175.643,51.226"/>
			</g>
			<g clip-path="url(#SVGID_4_)">
				<path fill="#7A7A7A" d="M18.301,64.656v-5.594h1.891c0.446,0,0.838,0.074,1.174,0.221c0.336,0.147,0.616,0.347,0.839,0.599
					c0.223,0.253,0.39,0.548,0.5,0.887c0.11,0.338,0.166,0.699,0.166,1.083c0,0.426-0.064,0.811-0.19,1.154
					s-0.304,0.638-0.535,0.882c-0.231,0.245-0.513,0.434-0.844,0.567c-0.33,0.134-0.701,0.201-1.11,0.201H18.301z M22.319,61.852
					c0-0.336-0.047-0.646-0.142-0.926c-0.094-0.28-0.232-0.523-0.414-0.729c-0.18-0.205-0.402-0.363-0.665-0.477
					c-0.262-0.113-0.564-0.169-0.906-0.169h-1.348v4.616h1.348c0.347,0,0.652-0.06,0.918-0.178c0.265-0.118,0.487-0.28,0.666-0.488
					c0.178-0.207,0.314-0.451,0.405-0.732C22.273,62.488,22.319,62.183,22.319,61.852"/>
			</g>
			<g clip-path="url(#SVGID_4_)">
				<polygon fill="#7A7A7A" points="38.446,64.168 38.446,64.656 34.688,64.656 34.688,59.063 38.375,59.063 38.375,59.552 
					35.231,59.552 35.231,61.567 37.973,61.567 37.973,62.033 35.231,62.033 35.231,64.168 				"/>
			</g>
			<g clip-path="url(#SVGID_4_)">
				<polygon fill="#7A7A7A" points="50.208,59.063 52.21,63.971 54.195,59.063 54.778,59.063 52.446,64.656 51.965,64.656 
					49.634,59.063 				"/>
			</g>
			<g clip-path="url(#SVGID_4_)">
				<polygon fill="#7A7A7A" points="70.069,64.168 70.069,64.656 66.312,64.656 66.312,59.063 69.999,59.063 69.999,59.552 
					66.854,59.552 66.854,61.567 69.596,61.567 69.596,62.033 66.854,62.033 66.854,64.168 				"/>
			</g>
			<g clip-path="url(#SVGID_4_)">
				<polygon fill="#7A7A7A" points="81.871,64.656 81.871,59.063 82.414,59.063 82.414,64.168 85.652,64.168 85.652,64.656 				"/>
			</g>
			<g clip-path="url(#SVGID_4_)">
				<path fill="#7A7A7A" d="M99.164,64.695c-0.388,0-0.745-0.08-1.067-0.24c-0.323-0.159-0.601-0.373-0.832-0.638
					c-0.231-0.266-0.409-0.568-0.535-0.91c-0.126-0.341-0.19-0.69-0.19-1.048c0-0.372,0.068-0.729,0.201-1.071
					c0.134-0.341,0.32-0.644,0.556-0.906c0.236-0.262,0.515-0.471,0.835-0.626c0.32-0.154,0.667-0.232,1.04-0.232
					c0.389,0,0.744,0.083,1.067,0.248c0.324,0.166,0.599,0.382,0.828,0.651c0.228,0.267,0.405,0.57,0.532,0.909
					c0.126,0.339,0.188,0.684,0.188,1.035c0,0.373-0.065,0.73-0.2,1.071c-0.134,0.342-0.317,0.643-0.551,0.902
					s-0.51,0.468-0.831,0.623C99.883,64.618,99.537,64.695,99.164,64.695 M97.092,61.859c0,0.305,0.05,0.598,0.149,0.879
					c0.1,0.28,0.243,0.53,0.426,0.748c0.184,0.218,0.402,0.392,0.654,0.52c0.252,0.129,0.533,0.193,0.843,0.193
					c0.315,0,0.601-0.068,0.859-0.205c0.257-0.136,0.475-0.314,0.654-0.535c0.178-0.221,0.316-0.47,0.413-0.749
					c0.098-0.278,0.146-0.562,0.146-0.851c0-0.305-0.051-0.597-0.154-0.878c-0.102-0.281-0.245-0.529-0.429-0.745
					c-0.184-0.215-0.402-0.387-0.654-0.516c-0.252-0.129-0.53-0.193-0.835-0.193c-0.315,0-0.601,0.067-0.859,0.201
					c-0.257,0.134-0.475,0.312-0.653,0.532c-0.179,0.221-0.317,0.47-0.414,0.748S97.092,61.571,97.092,61.859"/>
			</g>
			<g clip-path="url(#SVGID_4_)">
				<path fill="#7A7A7A" d="M113.581,64.656v-5.594h2.316c0.242,0,0.463,0.052,0.664,0.154c0.203,0.103,0.377,0.236,0.525,0.401
					c0.146,0.166,0.262,0.354,0.344,0.563c0.08,0.21,0.121,0.423,0.121,0.638c0,0.231-0.037,0.453-0.115,0.666
					c-0.076,0.213-0.185,0.4-0.326,0.563c-0.141,0.162-0.312,0.294-0.508,0.394c-0.197,0.1-0.416,0.149-0.658,0.149h-1.82v2.064
					H113.581z M114.124,62.104h1.789c0.162,0,0.311-0.035,0.445-0.106c0.134-0.07,0.248-0.165,0.342-0.283
					c0.095-0.118,0.169-0.255,0.221-0.41c0.053-0.154,0.079-0.316,0.079-0.484c0-0.173-0.03-0.337-0.091-0.492
					c-0.061-0.154-0.141-0.29-0.244-0.405s-0.223-0.206-0.361-0.272c-0.14-0.065-0.285-0.098-0.438-0.098h-1.741V62.104z"/>
			</g>
			<g clip-path="url(#SVGID_4_)">
				<polygon fill="#7A7A7A" points="134.158,64.656 134.158,60.063 132.118,63.616 131.795,63.616 129.746,60.063 129.746,64.656 
					129.203,64.656 129.203,59.063 129.763,59.063 131.952,62.892 134.142,59.063 134.702,59.063 134.702,64.656 				"/>
			</g>
			<g clip-path="url(#SVGID_4_)">
				<polygon fill="#7A7A7A" points="150.608,64.168 150.608,64.656 146.851,64.656 146.851,59.063 150.538,59.063 150.538,59.552 
					147.395,59.552 147.395,61.567 150.136,61.567 150.136,62.033 147.395,62.033 147.395,64.168 				"/>
			</g>
			<g clip-path="url(#SVGID_4_)">
				<polygon fill="#7A7A7A" points="162.954,60.087 162.954,64.656 162.41,64.656 162.41,59.063 162.836,59.063 166.538,63.719 
					166.538,59.071 167.082,59.071 167.082,64.656 166.608,64.656 				"/>
			</g>
			<g clip-path="url(#SVGID_4_)">
				<polygon fill="#7A7A7A" points="183.209,59.552 181.216,59.552 181.216,64.655 180.664,64.655 180.664,59.552 178.671,59.552 
					178.671,59.063 183.209,59.063 				"/>
			</g>
		</g>
	</g>
</g>
</svg>
