<?xml version="1.0" encoding="utf-8"?>
<!-- Generator: Adobe Illustrator 16.0.0, SVG Export Plug-In . SVG Version: 6.00 Build 0)  -->
<!DOCTYPE svg PUBLIC "-//W3C//DTD SVG 1.1//EN" "http://www.w3.org/Graphics/SVG/1.1/DTD/svg11.dtd">
<svg version="1.1" id="Layer_1" xmlns="http://www.w3.org/2000/svg" xmlns:xlink="http://www.w3.org/1999/xlink" x="0px" y="0px"
	 width="226.154px" height="89.5px" viewBox="0 0 226.154 89.5" enable-background="new 0 0 226.154 89.5" xml:space="preserve">
<g>
	<g>
		<path fill="#757575" d="M15.291,39.631c-2.052,0-3.916-0.43-5.593-1.291c-1.676-0.859-3.125-1.981-4.345-3.368
			s-2.162-2.978-2.827-4.781c-0.665-1.801-0.999-3.645-0.999-5.529c0-1.968,0.354-3.853,1.06-5.654
			c0.708-1.803,1.678-3.395,2.911-4.781c1.233-1.387,2.688-2.488,4.365-3.307c1.678-0.816,3.499-1.226,5.468-1.226
			c2.023,0,3.88,0.437,5.571,1.31c1.69,0.873,3.139,2.017,4.344,3.43c1.206,1.413,2.142,3.013,2.806,4.801
			c0.666,1.789,0.999,3.597,0.999,5.426c0,1.996-0.355,3.895-1.061,5.695c-0.707,1.803-1.677,3.389-2.91,4.761
			c-1.233,1.373-2.689,2.467-4.366,3.285C19.039,39.222,17.23,39.631,15.291,39.631z M2.943,24.663c0,1.773,0.304,3.479,0.915,5.113
			c0.609,1.636,1.461,3.084,2.556,4.344c1.096,1.264,2.398,2.267,3.908,3.016c1.511,0.748,3.167,1.12,4.969,1.12
			c1.857,0,3.541-0.393,5.051-1.183c1.511-0.792,2.808-1.823,3.889-3.099c1.081-1.274,1.918-2.729,2.515-4.365
			c0.596-1.635,0.895-3.285,0.895-4.947c0-1.773-0.312-3.478-0.936-5.114c-0.624-1.635-1.491-3.083-2.599-4.345
			c-1.109-1.261-2.412-2.266-3.909-3.014c-1.496-0.748-3.132-1.123-4.905-1.123c-1.857,0-3.542,0.396-5.052,1.186
			c-1.511,0.79-2.806,1.823-3.887,3.098c-1.081,1.275-1.919,2.723-2.516,4.344C3.241,21.315,2.943,22.972,2.943,24.663z
			 M12.048,4.707V1.297h1.289v3.409H12.048z M17.287,4.707V1.297h1.289v3.409H17.287z"/>
		<path fill="#757575" d="M57.698,39.422V12.73L45.268,33.685H44.31L31.879,12.73v26.692h-1.414V9.904h1.33L44.81,31.897
			L57.782,9.904h1.33v29.519H57.698z"/>
		<path fill="#757575" d="M80.315,38.091v1.331H60.816V9.904h19.125v1.33H62.229v12.432h15.509v1.33H62.229v13.096H80.315z"/>
		<path fill="#757575" d="M82.104,39.422V9.904h12.14c1.22,0,2.349,0.263,3.388,0.79c1.04,0.527,1.934,1.212,2.683,2.058
			c0.748,0.846,1.33,1.809,1.746,2.89c0.416,1.081,0.624,2.176,0.624,3.284c0,1.136-0.174,2.217-0.52,3.243
			c-0.348,1.025-0.847,1.94-1.497,2.744c-0.652,0.804-1.421,1.469-2.308,1.996c-0.888,0.527-1.871,0.845-2.952,0.956l7.442,11.558
			h-1.664l-7.358-11.392H83.517v11.392H82.104z M83.517,26.699h10.977c1.025,0,1.954-0.221,2.786-0.665
			c0.831-0.443,1.538-1.025,2.12-1.746c0.582-0.72,1.032-1.552,1.351-2.495c0.318-0.943,0.479-1.899,0.479-2.869
			c0-0.998-0.188-1.961-0.562-2.89c-0.375-0.928-0.88-1.746-1.518-2.454c-0.637-0.706-1.378-1.274-2.224-1.704
			c-0.846-0.43-1.753-0.645-2.724-0.645H83.517V26.699z"/>
		<path fill="#565656" d="M109.336,39.422V9.945h4.656v15.383l14.053-15.424h4.988l-11.641,13.054L133.7,39.422h-5.032
			l-10.061-13.804l-4.616,4.824v8.98H109.336z"/>
		<path fill="#565656" d="M146.046,35.431c1.554,0,2.842-0.305,3.867-0.914s1.851-1.408,2.474-2.392
			c0.624-0.983,1.066-2.106,1.331-3.367c0.263-1.261,0.394-2.558,0.394-3.889V9.904h4.699V24.87c0,2.024-0.235,3.93-0.707,5.718
			c-0.472,1.788-1.22,3.354-2.244,4.698c-1.025,1.345-2.349,2.404-3.972,3.182c-1.62,0.775-3.568,1.164-5.842,1.164
			c-2.356,0-4.344-0.409-5.965-1.227c-1.622-0.818-2.931-1.912-3.93-3.285c-0.997-1.372-1.719-2.945-2.162-4.719
			c-0.443-1.773-0.665-3.617-0.665-5.53V9.904h4.656V24.87c0,1.359,0.132,2.668,0.396,3.93c0.263,1.261,0.707,2.383,1.33,3.368
			c0.624,0.985,1.456,1.775,2.495,2.37C143.24,35.134,144.522,35.431,146.046,35.431z"/>
		<path fill="#565656" d="M182.884,14.019h-9.812v25.403h-4.656V14.019h-9.854V9.904h24.322V14.019z"/>
		<path fill="#565656" d="M180.681,39.422V9.904h4.656v25.403h15.84v4.116H180.681z"/>
		<path fill="#565656" d="M211.861,35.431c1.553,0,2.842-0.305,3.867-0.914s1.851-1.408,2.474-2.392
			c0.624-0.983,1.066-2.106,1.33-3.367c0.263-1.261,0.395-2.558,0.395-3.889V9.904h4.699V24.87c0,2.024-0.236,3.93-0.707,5.718
			c-0.472,1.788-1.22,3.354-2.244,4.698c-1.028,1.345-2.351,2.404-3.972,3.182c-1.622,0.775-3.569,1.164-5.842,1.164
			c-2.356,0-4.344-0.409-5.967-1.227c-1.62-0.818-2.931-1.912-3.928-3.285c-0.999-1.372-1.719-2.945-2.162-4.719
			c-0.443-1.773-0.665-3.617-0.665-5.53V9.904h4.656V24.87c0,1.359,0.132,2.668,0.395,3.93c0.264,1.261,0.708,2.383,1.331,3.368
			c0.624,0.985,1.454,1.775,2.494,2.37C209.055,35.134,210.337,35.431,211.861,35.431z"/>
	</g>
	<g>
		<path fill="#7A7A7A" d="M4.275,53.151v-7.38H6.77c0.589,0,1.106,0.098,1.549,0.291c0.443,0.194,0.813,0.458,1.107,0.789
			c0.295,0.333,0.515,0.724,0.659,1.17c0.146,0.446,0.22,0.924,0.22,1.429c0,0.562-0.084,1.069-0.25,1.523
			c-0.167,0.454-0.402,0.84-0.707,1.164c-0.305,0.323-0.676,0.572-1.113,0.748c-0.436,0.176-0.925,0.266-1.465,0.266H4.275z
			 M9.576,49.45c0-0.444-0.062-0.851-0.187-1.221c-0.125-0.37-0.307-0.691-0.547-0.961c-0.238-0.272-0.53-0.48-0.877-0.63
			s-0.745-0.223-1.196-0.223H4.992v6.092H6.77c0.458,0,0.861-0.08,1.211-0.235c0.349-0.155,0.643-0.37,0.879-0.644
			c0.235-0.274,0.414-0.595,0.535-0.967C9.515,50.291,9.576,49.888,9.576,49.45z"/>
		<path fill="#7A7A7A" d="M30.853,52.507v0.644h-4.958v-7.38h4.864v0.644h-4.147v2.661h3.618v0.613h-3.618v2.818H30.853z"/>
		<path fill="#7A7A7A" d="M46.37,45.771l2.642,6.476l2.619-6.476h0.77l-3.077,7.38h-0.635l-3.076-7.38H46.37z"/>
		<path fill="#7A7A7A" d="M72.574,52.507v0.644h-4.958v-7.38h4.863v0.644h-4.147v2.661h3.618v0.613h-3.618v2.818H72.574z"/>
		<path fill="#7A7A7A" d="M88.145,53.151v-7.38h0.716v6.736h4.272v0.644H88.145z"/>
		<path fill="#7A7A7A" d="M110.96,53.202c-0.513,0-0.983-0.106-1.409-0.317c-0.426-0.21-0.792-0.493-1.097-0.84
			c-0.304-0.352-0.54-0.75-0.706-1.202c-0.167-0.45-0.25-0.91-0.25-1.382c0-0.491,0.089-0.961,0.265-1.413
			c0.176-0.45,0.421-0.849,0.733-1.196c0.312-0.345,0.679-0.619,1.102-0.826c0.422-0.203,0.879-0.307,1.372-0.307
			c0.513,0,0.982,0.111,1.408,0.327c0.426,0.221,0.79,0.505,1.091,0.859c0.301,0.354,0.535,0.755,0.702,1.2
			c0.166,0.446,0.249,0.902,0.249,1.366c0,0.493-0.088,0.965-0.265,1.413c-0.177,0.452-0.419,0.848-0.727,1.192
			c-0.309,0.341-0.674,0.618-1.096,0.82C111.909,53.1,111.453,53.202,110.96,53.202z M108.227,49.46
			c0,0.403,0.065,0.789,0.197,1.159s0.319,0.7,0.562,0.988c0.243,0.286,0.53,0.517,0.862,0.685c0.334,0.169,0.704,0.255,1.114,0.255
			c0.415,0,0.792-0.09,1.132-0.27c0.339-0.18,0.627-0.416,0.863-0.708c0.234-0.291,0.417-0.62,0.545-0.988
			c0.129-0.368,0.192-0.74,0.192-1.123c0-0.401-0.067-0.787-0.203-1.157c-0.135-0.373-0.324-0.7-0.567-0.984
			c-0.242-0.284-0.53-0.511-0.862-0.681c-0.333-0.17-0.7-0.253-1.102-0.253c-0.417,0-0.794,0.088-1.134,0.264
			c-0.339,0.178-0.626,0.411-0.862,0.703c-0.235,0.291-0.417,0.62-0.546,0.986C108.291,48.706,108.227,49.08,108.227,49.46z"/>
		<path fill="#7A7A7A" d="M129.981,53.151v-7.38h3.056c0.318,0,0.61,0.067,0.877,0.203c0.267,0.135,0.498,0.313,0.692,0.529
			c0.193,0.219,0.344,0.466,0.452,0.745c0.107,0.276,0.162,0.558,0.162,0.84c0,0.307-0.05,0.599-0.151,0.879
			c-0.1,0.28-0.245,0.527-0.432,0.742c-0.186,0.215-0.411,0.388-0.669,0.519c-0.261,0.133-0.55,0.199-0.868,0.199h-2.402v2.724
			H129.981z M130.698,49.784h2.36c0.214,0,0.41-0.047,0.588-0.141c0.177-0.092,0.327-0.217,0.451-0.375
			c0.125-0.155,0.223-0.335,0.291-0.54c0.07-0.205,0.104-0.417,0.104-0.64c0-0.227-0.04-0.444-0.12-0.648
			c-0.08-0.204-0.187-0.384-0.322-0.536c-0.136-0.151-0.294-0.272-0.479-0.36c-0.183-0.086-0.376-0.129-0.577-0.129h-2.297V49.784z"
			/>
		<path fill="#7A7A7A" d="M157.13,53.151V47.09l-2.692,4.689h-0.426l-2.703-4.689v6.061h-0.717v-7.38h0.738l2.889,5.051l2.89-5.051
			h0.739v7.38H157.13z"/>
		<path fill="#7A7A7A" d="M178.833,52.507v0.644h-4.957v-7.38h4.864v0.644h-4.148v2.661h3.618v0.613h-3.618v2.818H178.833z"/>
		<path fill="#7A7A7A" d="M195.121,47.123v6.028h-0.718v-7.38h0.562l4.884,6.143v-6.132h0.718v7.37h-0.624L195.121,47.123z"/>
		<path fill="#7A7A7A" d="M221.844,46.416h-2.629v6.736h-0.729v-6.736h-2.629v-0.644h5.986V46.416z"/>
	</g>
</g>
</svg>
